
<svg xmlns="http://www.w3.org/2000/svg" version="1.1" width="259px" height="247px" style="shape-rendering:geometricPrecision; text-rendering:geometricPrecision; image-rendering:optimizeQuality; fill-rule:evenodd; clip-rule:evenodd" xmlns:xlink="http://www.w3.org/1999/xlink">
<g><path style="opacity:1" fill="#212644" d="M 116.5,-0.5 C 124.833,-0.5 133.167,-0.5 141.5,-0.5C 190.98,5.81134 227.147,31.1447 250,75.5C 252.764,83.3038 255.598,90.9705 258.5,98.5C 258.5,115.5 258.5,132.5 258.5,149.5C 242.502,201.831 207.835,234.164 154.5,246.5C 138.167,246.5 121.833,246.5 105.5,246.5C 46.6598,232.329 11.3265,195.662 -0.5,136.5C -0.5,127.167 -0.5,117.833 -0.5,108.5C 10.1406,57.358 40.1406,23.1913 89.5,6C 98.6131,3.75042 107.613,1.58375 116.5,-0.5 Z"/></g>
<g><path style="opacity:1" fill="#f80203" d="M 118.5,1.5 C 171.54,-0.566851 212.373,20.4331 241,64.5C 265.772,113.28 261.105,158.947 227,201.5C 188.79,240.097 143.29,252.597 90.5,239C 40.0869,221.917 10.5869,187.084 2,134.5C 0.923996,71.8029 29.7573,29.6363 88.5,8C 98.4309,4.85321 108.431,2.68655 118.5,1.5 Z"/></g>
<g><path style="opacity:1" fill="#eb7c31" d="M 236.5,164.5 C 234.68,168.14 232.847,171.807 231,175.5C 230.722,174.584 230.222,173.918 229.5,173.5C 197.506,121.521 166.006,69.1882 135,16.5C 134.018,15.2411 133.685,13.9078 134,12.5C 184.45,16.6333 219.45,41.9667 239,88.5C 247,114.151 246.167,139.484 236.5,164.5 Z"/></g>
<g><path style="opacity:1" fill="#2b314f" d="M 237.5,165.5 C 237.5,164.833 237.167,164.5 236.5,164.5C 246.167,139.484 247,114.151 239,88.5C 219.45,41.9667 184.45,16.6333 134,12.5C 133.685,13.9078 134.018,15.2411 135,16.5C 166.006,69.1882 197.506,121.521 229.5,173.5C 228.833,173.5 228.5,173.833 228.5,174.5C 215.4,153.815 202.4,132.982 189.5,112C 150.167,111.333 110.833,111.333 71.5,112C 59.5173,132.149 47.184,151.983 34.5,171.5C 34.5,170.833 34.1667,170.5 33.5,170.5C 64.891,118.061 96.5576,65.7275 128.5,13.5C 111.385,12.8607 95.0521,16.194 79.5,23.5C 79.5,22.8333 79.1667,22.5 78.5,22.5C 94.2149,14.3644 111.048,10.3644 129,10.5C 178.474,12.2146 214.474,34.8812 237,78.5C 249.455,107.585 249.622,136.585 237.5,165.5 Z"/></g>
<g><path style="opacity:1" fill="#dfeed7" d="M 130.5,13.5 C 142.184,31.6857 153.518,50.1857 164.5,69C 142.167,69.6667 119.833,69.6667 97.5,69C 108.754,50.5961 119.754,32.0961 130.5,13.5 Z"/></g>
<g><path style="opacity:1" fill="#a8d08d" d="M 94.5,71.5 C 117.836,71.3334 141.169,71.5 164.5,72C 172.167,84.3333 179.833,96.6667 187.5,109C 149.167,109.667 110.833,109.667 72.5,109C 80.4918,96.8444 87.8251,84.3444 94.5,71.5 Z"/></g>
<g><path style="opacity:1" fill="#538234" d="M 228.5,174.5 C 163.335,175.665 98.0013,175.832 32.5,175C 33.8228,174.184 34.4894,173.017 34.5,171.5C 47.184,151.983 59.5173,132.149 71.5,112C 110.833,111.333 150.167,111.333 189.5,112C 202.4,132.982 215.4,153.815 228.5,174.5 Z"/></g>
<g><path style="opacity:1" fill="#1c2c50" d="M 236.5,164.5 C 237.167,164.5 237.5,164.833 237.5,165.5C 235.974,170.885 233.64,175.885 230.5,180.5C 229.833,180.5 229.167,180.5 228.5,180.5C 228.804,179.85 229.137,179.183 229.5,178.5C 162.833,177.833 96.1667,177.167 29.5,176.5C 30.8567,174.435 32.19,172.435 33.5,170.5C 34.1667,170.5 34.5,170.833 34.5,171.5C 34.4894,173.017 33.8228,174.184 32.5,175C 98.0013,175.832 163.335,175.665 228.5,174.5C 228.5,173.833 228.833,173.5 229.5,173.5C 230.222,173.918 230.722,174.584 231,175.5C 232.847,171.807 234.68,168.14 236.5,164.5 Z"/></g>
<g><path style="opacity:1" fill="#eb7c31" d="M 33.5,170.5 C 32.19,172.435 30.8567,174.435 29.5,176.5C 96.1667,177.167 162.833,177.833 229.5,178.5C 229.137,179.183 228.804,179.85 228.5,180.5C 201.303,219.759 163.637,237.592 115.5,234C 63.1776,226.01 30.0109,196.51 16,145.5C 8.84996,97.9752 24.6833,60.1419 63.5,32C 68.7017,28.8994 74.0351,26.0661 79.5,23.5C 95.0521,16.194 111.385,12.8607 128.5,13.5C 96.5576,65.7275 64.891,118.061 33.5,170.5 Z"/></g>
<g><path style="opacity:1" fill="#342f4b" d="M 78.5,22.5 C 79.1667,22.5 79.5,22.8333 79.5,23.5C 74.0351,26.0661 68.7017,28.8994 63.5,32C 24.6833,60.1419 8.84996,97.9752 16,145.5C 30.0109,196.51 63.1776,226.01 115.5,234C 163.637,237.592 201.303,219.759 228.5,180.5C 229.167,180.5 229.833,180.5 230.5,180.5C 209.292,212.952 179.292,231.452 140.5,236C 91.6474,238.823 53.8141,219.99 27,179.5C 0.0181661,125.213 8.8515,77.7131 53.5,37C 61.248,31.0695 69.5813,26.2361 78.5,22.5 Z"/></g>
</svg>
